G04 #@! TF.GenerationSoftware,KiCad,Pcbnew,10.0.6*
G04 #@! TF.CreationDate,2026-10-05T12:46:30+03:00*
G04 #@! TF.ProjectId,hw12_dmn2990ufa_breakout,68773132-5f64-46d6-9e32-393930756661,1*
G04 #@! TF.SameCoordinates,Original*
G04 #@! TF.FileFunction,Legend,Top*
G04 #@! TF.FilePolarity,Positive*
%FSLAX46Y46*%
G04 Gerber Fmt 4.6, Leading zero omitted, Abs format (unit mm)*
G04 Created by KiCad (PCBNEW 10.0.6) date 2026-10-05 12:46:30*
%MOMM*%
%LPD*%
G01*
G04 APERTURE LIST*
%ADD10C,0.150000*%
%ADD11C,0.120000*%
G04 APERTURE END LIST*
D10*
X5400000Y-3912500D02*
X5450000Y-3912500D01*
X4019523Y-10000390D02*
X3943333Y-9962295D01*
X3943333Y-9962295D02*
X3829047Y-9962295D01*
X3829047Y-9962295D02*
X3714761Y-10000390D01*
X3714761Y-10000390D02*
X3638571Y-10076580D01*
X3638571Y-10076580D02*
X3600476Y-10152771D01*
X3600476Y-10152771D02*
X3562380Y-10305152D01*
X3562380Y-10305152D02*
X3562380Y-10419438D01*
X3562380Y-10419438D02*
X3600476Y-10571819D01*
X3600476Y-10571819D02*
X3638571Y-10648009D01*
X3638571Y-10648009D02*
X3714761Y-10724200D01*
X3714761Y-10724200D02*
X3829047Y-10762295D01*
X3829047Y-10762295D02*
X3905238Y-10762295D01*
X3905238Y-10762295D02*
X4019523Y-10724200D01*
X4019523Y-10724200D02*
X4057619Y-10686104D01*
X4057619Y-10686104D02*
X4057619Y-10419438D01*
X4057619Y-10419438D02*
X3905238Y-10419438D01*
X502381Y-1212295D02*
X502381Y-412295D01*
X502381Y-793247D02*
X959524Y-793247D01*
X959524Y-1212295D02*
X959524Y-412295D01*
X1264285Y-412295D02*
X1454761Y-1212295D01*
X1454761Y-1212295D02*
X1607142Y-640866D01*
X1607142Y-640866D02*
X1759523Y-1212295D01*
X1759523Y-1212295D02*
X1950000Y-412295D01*
X2254762Y-1136104D02*
X2292857Y-1174200D01*
X2292857Y-1174200D02*
X2254762Y-1212295D01*
X2254762Y-1212295D02*
X2216666Y-1174200D01*
X2216666Y-1174200D02*
X2254762Y-1136104D01*
X2254762Y-1136104D02*
X2254762Y-1212295D01*
X3054761Y-1212295D02*
X2597618Y-1212295D01*
X2826190Y-1212295D02*
X2826190Y-412295D01*
X2826190Y-412295D02*
X2749999Y-526580D01*
X2749999Y-526580D02*
X2673809Y-602771D01*
X2673809Y-602771D02*
X2597618Y-640866D01*
X3359523Y-488485D02*
X3397619Y-450390D01*
X3397619Y-450390D02*
X3473809Y-412295D01*
X3473809Y-412295D02*
X3664285Y-412295D01*
X3664285Y-412295D02*
X3740476Y-450390D01*
X3740476Y-450390D02*
X3778571Y-488485D01*
X3778571Y-488485D02*
X3816666Y-564676D01*
X3816666Y-564676D02*
X3816666Y-640866D01*
X3816666Y-640866D02*
X3778571Y-755152D01*
X3778571Y-755152D02*
X3321428Y-1212295D01*
X3321428Y-1212295D02*
X3816666Y-1212295D01*
X4769048Y-1212295D02*
X4769048Y-412295D01*
X4769048Y-412295D02*
X4959524Y-412295D01*
X4959524Y-412295D02*
X5073810Y-450390D01*
X5073810Y-450390D02*
X5150000Y-526580D01*
X5150000Y-526580D02*
X5188095Y-602771D01*
X5188095Y-602771D02*
X5226191Y-755152D01*
X5226191Y-755152D02*
X5226191Y-869438D01*
X5226191Y-869438D02*
X5188095Y-1021819D01*
X5188095Y-1021819D02*
X5150000Y-1098009D01*
X5150000Y-1098009D02*
X5073810Y-1174200D01*
X5073810Y-1174200D02*
X4959524Y-1212295D01*
X4959524Y-1212295D02*
X4769048Y-1212295D01*
X5569048Y-1212295D02*
X5569048Y-412295D01*
X5569048Y-412295D02*
X5835714Y-983723D01*
X5835714Y-983723D02*
X6102381Y-412295D01*
X6102381Y-412295D02*
X6102381Y-1212295D01*
X6483334Y-1212295D02*
X6483334Y-412295D01*
X6483334Y-412295D02*
X6940477Y-1212295D01*
X6940477Y-1212295D02*
X6940477Y-412295D01*
X7283333Y-488485D02*
X7321429Y-450390D01*
X7321429Y-450390D02*
X7397619Y-412295D01*
X7397619Y-412295D02*
X7588095Y-412295D01*
X7588095Y-412295D02*
X7664286Y-450390D01*
X7664286Y-450390D02*
X7702381Y-488485D01*
X7702381Y-488485D02*
X7740476Y-564676D01*
X7740476Y-564676D02*
X7740476Y-640866D01*
X7740476Y-640866D02*
X7702381Y-755152D01*
X7702381Y-755152D02*
X7245238Y-1212295D01*
X7245238Y-1212295D02*
X7740476Y-1212295D01*
X8121429Y-1212295D02*
X8273810Y-1212295D01*
X8273810Y-1212295D02*
X8350000Y-1174200D01*
X8350000Y-1174200D02*
X8388096Y-1136104D01*
X8388096Y-1136104D02*
X8464286Y-1021819D01*
X8464286Y-1021819D02*
X8502381Y-869438D01*
X8502381Y-869438D02*
X8502381Y-564676D01*
X8502381Y-564676D02*
X8464286Y-488485D01*
X8464286Y-488485D02*
X8426191Y-450390D01*
X8426191Y-450390D02*
X8350000Y-412295D01*
X8350000Y-412295D02*
X8197619Y-412295D01*
X8197619Y-412295D02*
X8121429Y-450390D01*
X8121429Y-450390D02*
X8083334Y-488485D01*
X8083334Y-488485D02*
X8045238Y-564676D01*
X8045238Y-564676D02*
X8045238Y-755152D01*
X8045238Y-755152D02*
X8083334Y-831342D01*
X8083334Y-831342D02*
X8121429Y-869438D01*
X8121429Y-869438D02*
X8197619Y-907533D01*
X8197619Y-907533D02*
X8350000Y-907533D01*
X8350000Y-907533D02*
X8426191Y-869438D01*
X8426191Y-869438D02*
X8464286Y-831342D01*
X8464286Y-831342D02*
X8502381Y-755152D01*
X8883334Y-1212295D02*
X9035715Y-1212295D01*
X9035715Y-1212295D02*
X9111905Y-1174200D01*
X9111905Y-1174200D02*
X9150001Y-1136104D01*
X9150001Y-1136104D02*
X9226191Y-1021819D01*
X9226191Y-1021819D02*
X9264286Y-869438D01*
X9264286Y-869438D02*
X9264286Y-564676D01*
X9264286Y-564676D02*
X9226191Y-488485D01*
X9226191Y-488485D02*
X9188096Y-450390D01*
X9188096Y-450390D02*
X9111905Y-412295D01*
X9111905Y-412295D02*
X8959524Y-412295D01*
X8959524Y-412295D02*
X8883334Y-450390D01*
X8883334Y-450390D02*
X8845239Y-488485D01*
X8845239Y-488485D02*
X8807143Y-564676D01*
X8807143Y-564676D02*
X8807143Y-755152D01*
X8807143Y-755152D02*
X8845239Y-831342D01*
X8845239Y-831342D02*
X8883334Y-869438D01*
X8883334Y-869438D02*
X8959524Y-907533D01*
X8959524Y-907533D02*
X9111905Y-907533D01*
X9111905Y-907533D02*
X9188096Y-869438D01*
X9188096Y-869438D02*
X9226191Y-831342D01*
X9226191Y-831342D02*
X9264286Y-755152D01*
X9759525Y-412295D02*
X9835715Y-412295D01*
X9835715Y-412295D02*
X9911906Y-450390D01*
X9911906Y-450390D02*
X9950001Y-488485D01*
X9950001Y-488485D02*
X9988096Y-564676D01*
X9988096Y-564676D02*
X10026191Y-717057D01*
X10026191Y-717057D02*
X10026191Y-907533D01*
X10026191Y-907533D02*
X9988096Y-1059914D01*
X9988096Y-1059914D02*
X9950001Y-1136104D01*
X9950001Y-1136104D02*
X9911906Y-1174200D01*
X9911906Y-1174200D02*
X9835715Y-1212295D01*
X9835715Y-1212295D02*
X9759525Y-1212295D01*
X9759525Y-1212295D02*
X9683334Y-1174200D01*
X9683334Y-1174200D02*
X9645239Y-1136104D01*
X9645239Y-1136104D02*
X9607144Y-1059914D01*
X9607144Y-1059914D02*
X9569048Y-907533D01*
X9569048Y-907533D02*
X9569048Y-717057D01*
X9569048Y-717057D02*
X9607144Y-564676D01*
X9607144Y-564676D02*
X9645239Y-488485D01*
X9645239Y-488485D02*
X9683334Y-450390D01*
X9683334Y-450390D02*
X9759525Y-412295D01*
X10369049Y-412295D02*
X10369049Y-1059914D01*
X10369049Y-1059914D02*
X10407144Y-1136104D01*
X10407144Y-1136104D02*
X10445239Y-1174200D01*
X10445239Y-1174200D02*
X10521430Y-1212295D01*
X10521430Y-1212295D02*
X10673811Y-1212295D01*
X10673811Y-1212295D02*
X10750001Y-1174200D01*
X10750001Y-1174200D02*
X10788096Y-1136104D01*
X10788096Y-1136104D02*
X10826192Y-1059914D01*
X10826192Y-1059914D02*
X10826192Y-412295D01*
X11473810Y-793247D02*
X11207144Y-793247D01*
X11207144Y-1212295D02*
X11207144Y-412295D01*
X11207144Y-412295D02*
X11588096Y-412295D01*
X11854762Y-983723D02*
X12235715Y-983723D01*
X11778572Y-1212295D02*
X12045239Y-412295D01*
X12045239Y-412295D02*
X12311905Y-1212295D01*
X6121428Y-10724200D02*
X6235714Y-10762295D01*
X6235714Y-10762295D02*
X6426190Y-10762295D01*
X6426190Y-10762295D02*
X6502381Y-10724200D01*
X6502381Y-10724200D02*
X6540476Y-10686104D01*
X6540476Y-10686104D02*
X6578571Y-10609914D01*
X6578571Y-10609914D02*
X6578571Y-10533723D01*
X6578571Y-10533723D02*
X6540476Y-10457533D01*
X6540476Y-10457533D02*
X6502381Y-10419438D01*
X6502381Y-10419438D02*
X6426190Y-10381342D01*
X6426190Y-10381342D02*
X6273809Y-10343247D01*
X6273809Y-10343247D02*
X6197619Y-10305152D01*
X6197619Y-10305152D02*
X6159524Y-10267057D01*
X6159524Y-10267057D02*
X6121428Y-10190866D01*
X6121428Y-10190866D02*
X6121428Y-10114676D01*
X6121428Y-10114676D02*
X6159524Y-10038485D01*
X6159524Y-10038485D02*
X6197619Y-10000390D01*
X6197619Y-10000390D02*
X6273809Y-9962295D01*
X6273809Y-9962295D02*
X6464286Y-9962295D01*
X6464286Y-9962295D02*
X6578571Y-10000390D01*
X8680476Y-10762295D02*
X8680476Y-9962295D01*
X8680476Y-9962295D02*
X8870952Y-9962295D01*
X8870952Y-9962295D02*
X8985238Y-10000390D01*
X8985238Y-10000390D02*
X9061428Y-10076580D01*
X9061428Y-10076580D02*
X9099523Y-10152771D01*
X9099523Y-10152771D02*
X9137619Y-10305152D01*
X9137619Y-10305152D02*
X9137619Y-10419438D01*
X9137619Y-10419438D02*
X9099523Y-10571819D01*
X9099523Y-10571819D02*
X9061428Y-10648009D01*
X9061428Y-10648009D02*
X8985238Y-10724200D01*
X8985238Y-10724200D02*
X8870952Y-10762295D01*
X8870952Y-10762295D02*
X8680476Y-10762295D01*
G04 #@! TO.C,J1*
D11*
X2430000Y-9380000D02*
X2430000Y-8000000D01*
X3810000Y-9380000D02*
X2430000Y-9380000D01*
X5080000Y-6620000D02*
X10270000Y-6620000D01*
X5080000Y-9380000D02*
X5080000Y-6620000D01*
X5080000Y-9380000D02*
X10270000Y-9380000D01*
X10270000Y-9380000D02*
X10270000Y-6620000D01*
G04 #@! TD*
M02*
